<svg xmlns="http://www.w3.org/2000/svg" viewBox="180 10 30 30">
  <style>
    .cls-2 { fill:#fff; }
  </style>

  <path class="cls-2" d="m184.8 31.4c0.8-0.4 1.8-0.3 2.5 0.3 0.8 0.7 0.7 2.2-0.4 2.7-0.8 0.4-1.8 0.2-2.2-0.5-0.6-0.8-0.5-2 0.1-2.5z"/>

  <path class="cls-2" d="m190.5 30.5c0-3.2 3.4-4.4 6.9-4.4h1.8v-0.8c0-2.2-0.8-3.3-2.8-3.3-1.8 0-2.8 0.8-3 2.6h-2.3c0.3-3.1 2.8-4.5 5.5-4.5 2.6 0 5.1 1.3 5.1 5v9.3h-2.3v-1.7c-1 1.2-2.4 1.9-4.4 1.9-2.6 0-4.5-1.2-4.5-4.1zm8.7-0.9v-1.9h-1.8c-2.7 0-4.5 0.7-4.5 2.8 0 1.4 0.7 2.2 2.5 2.2 2.1 0 3.8-1.1 3.8-3.1z"/>

  <path class="cls-2" d="m204.7 16c0-0.8 0.8-1.5 1.5-1.5 0.8 0 1.5 0.7 1.5 1.5s-0.7 1.6-1.5 1.6c-0.7 0-1.5-0.7-1.5-1.6zm0.4 4.4h2.2v14h-2.2v-14z"/>
</svg>
