<svg xmlns="http://www.w3.org/2000/svg" viewBox="0 0 210 52">
<!-- SVG created with Arrow, by QuiverAI (https://quiver.ai) -->
  <style type="text/css">.cls-0 {fill:#969696;}
.cls-1 {fill:#000;}
.cls-2 {fill:#000;}</style>
  <path class="cls-1" d="m56.6 23.6v-9.9h2.9v7.3h3.1v-10.3h-5.7v-7.9h-3.1v34.6c-5.8 0.8-13.1 2.3-20.7 6.3v-29.8c1.2-1 3.6-2.3 5.7-3.1v-3.2c-2.2 0.8-5.3 2.2-7.1 3.8-3.3-2.9-12.7-7.4-23.6-7.6v6.9h-5.5v35.2h6.5c6.8 0 16.3 0.9 22.5 2.6 6.9-1.5 14.8-2.6 25-2.6h5.9v-16.3h-3v13.6h-3.5c-5 0-10.9 0.2-17.4 0.9 4.5-2.2 11.3-3.7 18-4.2v-13.3h8.5v-3h-8.5zm-51.2 19.6v-29.6h2.7v26.3c5.2 0.5 11.8 1.7 16.5 4-5.5-0.6-11.2-0.7-15.5-0.7h-3.7zm24.9 0.6c-6.1-3.4-13.4-5.5-19.6-6.4v-30.6c5.7 0.2 16 3.2 19.6 7v30z"/>
  <rect class="cls-1" x="47.7" y="2.8" width="2.9" height="27.4"/>
  <rect class="cls-1" x="41.8" y="5.2" width="2.9" height="31.7"/>
  <rect class="cls-1" x="35.9" y="20.6" width="3" height="12.8"/>
  <path class="cls-2" d="m81.2 20.4h2.5v2.1c0.7-1.2 2.2-2.4 4.2-2.4 1.8 0 3.3 0.7 4 2.5 1-1.7 2.9-2.5 4.5-2.5 2.4 0 4.6 1.4 4.6 5v9.3h-2.3v-8.8c0-2.2-1-3.5-2.8-3.5-1.9 0-3.4 1.5-3.4 3.7v8.6h-2.4v-8.8c0-2.2-0.9-3.5-2.8-3.5s-3.5 1.5-3.5 3.7v8.6h-2.5l-0.1-14z"/>
  <path class="cls-2" d="m108.4 33-5.3-12.6h2.5l4 9.8 3.7-9.8h2.4l-7.4 18.8h-2.3l2.4-6.2z"/>
  <path class="cls-2" d="m118.5 20.4h2.4v2.1c0.7-1.2 2.2-2.4 4.5-2.4 2.8 0 4.9 1.6 4.9 5.4v8.9h-2.4v-8.7c0-2.3-1-3.6-3-3.6-2.2 0-4 1.4-4 3.9v8.4h-2.4v-14z"/>
  <path class="cls-2" d="m133.4 27.5v-0.2c0-4.1 2.8-7.2 6.8-7.2 3.8 0 6.9 3 6.9 7.2v0.2c0 4.1-2.8 7-6.8 7s-6.9-2.9-6.9-7zm11.4 0v-0.2c0-3.1-1.7-5.3-4.3-5.3-2.8 0-4.7 2.1-4.7 5.3v0.2c0 3 1.8 5 4.5 5s4.5-1.9 4.5-5z"/>
  <path class="cls-2" d="m148.1 20.4h2.7l4.2 11.2 4.1-11.2h2.4l-5.2 14h-2.8l-5.4-14z"/>
  <path class="cls-2" d="m162.5 27.5v-0.2c0-4.2 2.6-7.2 6.4-7.2 3.2 0 6.5 1.9 7 6.5v1.2h-11c0.1 2.9 1.6 4.8 4.4 4.8 2.1 0 3.4-0.8 3.7-2.2h2.7c-0.6 2.7-3.1 4.1-6.3 4.1-4 0-6.9-2.7-6.9-7zm10.6-1.5c-0.3-2.6-1.7-3.9-4-3.9s-3.8 1.5-4.1 3.9h8.1z"/>
  <path class="cls-2" d="m178.6 13.9h2.5v20.5h-2.4l-0.1-20.5z"/>
  <path class="cls-2" d="m184.8 31.4c0.8-0.4 1.8-0.3 2.5 0.3 0.8 0.7 0.7 2.2-0.4 2.7-0.8 0.4-1.8 0.2-2.2-0.5-0.6-0.8-0.5-2 0.1-2.5z"/>
  <path class="cls-2" d="m190.5 30.5c0-3.2 3.4-4.4 6.9-4.4h1.8v-0.8c0-2.2-0.8-3.3-2.8-3.3-1.8 0-2.8 0.8-3 2.6h-2.3c0.3-3.1 2.8-4.5 5.5-4.5 2.6 0 5.1 1.3 5.1 5v9.3h-2.3v-1.7c-1 1.2-2.4 1.9-4.4 1.9-2.6 0-4.5-1.2-4.5-4.1zm8.7-0.9v-1.9h-1.8c-2.7 0-4.5 0.7-4.5 2.8 0 1.4 0.7 2.2 2.5 2.2 2.1 0 3.8-1.1 3.8-3.1z"/>
  <path class="cls-2" d="m204.7 16c0-0.8 0.8-1.5 1.5-1.5 0.8 0 1.5 0.7 1.5 1.5s-0.7 1.6-1.5 1.6c-0.7 0-1.5-0.7-1.5-1.6zm0.4 4.4h2.2v14h-2.2v-14z"/>
</svg>
